:SAMPLES-PER-SECOND 30
:FULLY-SPECIFIED
:DEGREES
124
root  -51.5622 38.4027 7.15882 -118.019 -82.164 114.875
RightUpLeg  -25.2526 -12.2823 -10.3826
RightLeg  3.78752 -4.25361 0.523064
RightFoot  -4.20705 -0.499538 7.50093
RightToes  -8.73116e-010 0 -3.6325e-017
Spine  35.2074 -2.57474 -0.906309
Spine1  16.022 -2.41788 -1.87933
HEad  -16.2774 -6.19653 0.171166
LeftShoulder1  1.2767 -0.575669 -25.1431
LeftArm  -3.3715 -22.9738 -50.9052
LeftForeArm  22.0082 -21.8679 -3.80917
LeftHand  -0.0610525 2.22101 1.85781
RightShoulder  0.236538 -2.65107 22.1626
RightArm  12.5861 9.18385 50.8585
RightForeArm  5.26913 19.9545 4.49444
RightHand  -0.527457 5.11591 -6.1352
LeftUpLeg  -12.934 1.0613 -7.94188
LeftLeg  31.5096 -0.812851 -0.17543
LeftFoot  -14.1558 0.211953 5.20526
LeftToes  -5.63919e-011 3.32596e-011 1.92487e-011
125
root  -52.5582 38.0187 6.70834 -102.408 -82.1163 99.5412
RightUpLeg  -26.0966 -12.6816 -11.048
RightLeg  4.12231 -1.6128 -0.0694085
RightFoot  -3.05897 -0.491118 6.80114
RightToes  -8.73116e-010 0 -3.6325e-017
Spine  36.7473 -3.12264 0.710122
Spine1  16.4937 -2.56573 -1.95058
HEad  -16.8102 -8.48477 0.621812
LeftShoulder1  1.47432 -1.41059 -23.721
LeftArm  -3.11324 -26.276 -52.3355
LeftForeArm  22.7974 -22.8847 -3.78276
LeftHand  -0.0636826 1.51266 1.68186
RightShoulder  0.218449 -2.69359 21.584
RightArm  11.2219 10.1136 50.7929
RightForeArm  5.55349 20.4214 4.41347
RightHand  -0.519416 4.37872 -6.43818
LeftUpLeg  -13.6724 -0.445103 -8.29802
LeftLeg  35.7094 -0.700195 -0.163231
LeftFoot  -16.2373 0.282513 4.39102
LeftToes  -5.63919e-011 3.32596e-011 1.92487e-011
126
root  -53.5157 37.6176 6.21909 -93.8384 -82.4271 92.1331
RightUpLeg  -29.5131 -12.9504 -10.1261
RightLeg  9.73716 -0.726125 0.0421125
RightFoot  3.97723 -0.671945 4.94505
RightToes  -8.73116e-010 0 -3.6325e-017
Spine  37.9335 -3.41804 2.87368
Spine1  16.4542 -2.33814 -1.48415
HEad  -17.5297 -10.3651 0.908733
LeftShoulder1  1.58889 -1.86796 -23.3202
LeftArm  -2.54463 -29.743 -53.3923
LeftForeArm  23.1578 -23.917 -3.89665
LeftHand  -0.0554036 2.03152 1.56567
RightShoulder  0.343289 -2.18664 19.9683
RightArm  9.69027 11.6258 50.9904
RightForeArm  6.19174 19.9935 4.31675
RightHand  -0.478961 4.23701 -6.04283
LeftUpLeg  -17.1133 -0.280257 -7.26291
LeftLeg  42.7676 -1.20276 -0.848461
LeftFoot  -16.1804 0.191413 2.22474
LeftToes  -5.63919e-011 3.32596e-011 1.92487e-011
127
root  -54.3294 37.0411 5.74398 -84.3794 -83.4898 84.2516
RightUpLeg  -34.3628 -15.5522 -7.87368
RightLeg  16.3477 1.34581 1.05928
RightFoot  10.6691 -1.04672 5.80149
RightToes  -8.73116e-010 0 -3.6325e-017
Spine  39.6139 -4.24032 6.01754
Spine1  15.5143 -1.93693 -1.8703
HEad  -18.8823 -12.1157 1.55441
LeftShoulder1  1.67214 -2.35631 -22.1925
LeftArm  -2.53797 -33.387 -54.5822
LeftForeArm  23.2353 -24.3608 -3.99169
LeftHand  -0.0621525 1.43737 1.62207
RightShoulder  0.431325 -1.77506 18.8529
RightArm  8.99551 14.9415 51.2044
RightForeArm  4.86491 18.1042 4.37908
RightHand  -0.593702 5.62061 -6.57
LeftUpLeg  -24.4534 0.958938 -5.02734
LeftLeg  54.6592 -2.16564 -2.82517
LeftFoot  -11.8645 0.116411 -2.32347
LeftToes  -5.63919e-011 3.32596e-011 1.92487e-011
128
root  -55.0389 36.4881 5.29835 -78.0789 -85.3342 79.0664
RightUpLeg  -39.884 -18.5148 -3.20291
RightLeg  25 4.78258 2.08459
RightFoot  10.2252 -0.311369 1.97703
RightToes  -8.73116e-010 0 -3.6325e-017
Spine  42.3095 -4.74176 8.84076
Spine1  14.3144 -1.74547 -0.768533
HEad  -20.1406 -12.8293 1.29028
LeftShoulder1  1.76456 -2.79789 -21.6586
LeftArm  -1.66419 -37.4502 -54.8504
LeftForeArm  21.6755 -23.5854 -3.91689
LeftHand  -0.0612223 1.57906 1.59657
RightShoulder  0.617624 -0.788142 16.1716
RightArm  7.8285 20.1208 51.9086
RightForeArm  5.94944 14.4539 4.62913
RightHand  -0.596656 5.28774 -6.78594
LeftUpLeg  -32.5341 3.24598 -2.20585
LeftLeg  65.7844 -1.79881 -3.47901
LeftFoot  -2.08885 0.311922 -4.93339
LeftToes  -5.63919e-011 3.32596e-011 1.92487e-011
129
root  -55.6979 36.0652 4.80249 -81.3739 -86.8046 83.4365
RightUpLeg  -43.5512 -18.3676 -0.211523
RightLeg  31.0038 4.80606 2.85947
RightFoot  8.70548 0.421729 -2.03761
RightToes  -8.73116e-010 0 -3.6325e-017
Spine  44.7759 -4.56355 9.7769
Spine1  14.262 -1.52107 0.315845
HEad  -22.719 -12.9107 1.81739
LeftShoulder1  1.81388 -3.47678 -19.4942
LeftArm  -5.58823 -40.6543 -55.1645
LeftForeArm  23.4154 -23.7949 -3.87472
LeftHand  -0.117649 0.809863 2.91943
RightShoulder  0.764667 0.131304 14.2053
RightArm  7.12964 28.9528 52.2936
RightForeArm  7.32955 8.12162 5.26304
RightHand  -0.541005 5.00353 -6.33285
LeftUpLeg  -39.6016 6.13435 -0.662578
LeftLeg  72.6889 -0.536952 -1.08669
LeftFoot  5.62497 -0.0153264 0.114367
LeftToes  -5.63919e-011 3.32596e-011 1.92487e-011
130
root  -56.3104 35.8542 4.27486 -103.58 -87.2104 106.625
RightUpLeg  -45.7383 -17.3619 1.43219
RightLeg  34.726 4.65047 3.19094
RightFoot  6.34852 0.541054 -3.19053
RightToes  -8.73116e-010 0 -3.6325e-017
Spine  48.2807 -3.9392 8.99533
Spine1  13.5959 -1.02737 0.6645
HEad  -26.7248 -12.8203 2.56603
LeftShoulder1  1.89215 -4.362 -17.4235
LeftArm  -8.23663 -44.8606 -54.2941
LeftForeArm  22.2661 -21.9576 -3.63277
LeftHand  -0.155326 -0.0531463 3.35463
RightShoulder  0.871667 0.910571 12.7983
RightArm  6.66277 38.6912 52.3992
RightForeArm  9.05695 1.34232 5.03747
RightHand  -0.395274 4.3779 -4.95961
LeftUpLeg  -44.5977 8.52963 -0.190558
LeftLeg  74.0742 -0.676076 -1.61463
LeftFoot  3.10196 -0.129663 0.901571
LeftToes  -5.63919e-011 3.32596e-011 1.92487e-011
131
root  -56.9717 35.9163 3.86002 -98.928 -88.2991 102.661
RightUpLeg  -45.9524 -17.0181 3.00325
RightLeg  36.2197 4.05842 2.919
RightFoot  4.92659 0.680026 -4.51441
RightToes  -8.73116e-010 0 -3.6325e-017
Spine  52.2146 -4.93212 10.3118
Spine1  12.4378 -0.698449 -0.131712
HEad  -30.1429 -12.9667 3.20211
LeftShoulder1  2.04441 -5.63347 -15.5837
LeftArm  -10.9076 -49.3636 -53.1675
LeftForeArm  20.9123 -19.8895 -3.35912
LeftHand  -0.155062 0.0508467 3.37438
RightShoulder  0.974825 1.8666 10.9924
RightArm  3.46917 46.6792 50.6259
RightForeArm  10.0968 -3.22813 3.79788
RightHand  -0.288595 2.85618 -4.30385
LeftUpLeg  -47.7786 9.23604 0.531438
LeftLeg  70.3873 -1.48837 -3.7819
LeftFoot  -0.0126741 -0.079468 0.708704
LeftToes  -5.63919e-011 3.32596e-011 1.92487e-011
132
root  -57.5907 36.0289 3.48822 -65.5649 -89.0882 70.5641
RightUpLeg  -46.6201 -17.3052 4.46828
RightLeg  37.1192 3.6008 2.64712
RightFoot  3.76417 0.743408 -5.39938
RightToes  -8.73116e-010 0 -3.6325e-017
Spine  55.8793 -5.87922 11.6563
Spine1  11.2095 -0.412579 -0.458541
HEad  -32.4285 -13.8334 4.02445
LeftShoulder1  2.20831 -7.07021 -13.9612
LeftArm  -12.2869 -54.9109 -51.1496
LeftForeArm  18.2525 -16.8705 -2.9023
LeftHand  -0.113389 0.598994 2.70253
RightShoulder  1.06407 2.97504 9.08271
RightArm  -1.28712 52.9868 45.5044
RightForeArm  5.26613 -5.5132 2.6692
RightHand  -0.362044 3.09044 -5.17593
LeftUpLeg  -50.0511 8.63665 0.791635
LeftLeg  62.987 -3.16966 -6.0703
LeftFoot  -3.01429 0.174571 -2.11866
LeftToes  -5.63919e-011 3.32596e-011 1.92487e-011
133
root  -58.1437 36.1015 3.13457 -33.8277 -89.6798 40.7417
RightUpLeg  -48.0307 -16.3392 5.68833
RightLeg  37.7276 3.06584 2.26634
RightFoot  2.85833 0.760957 -5.94566
RightToes  -8.73116e-010 0 -3.6325e-017
Spine  59.4913 -5.86653 11.9162
Spine1  9.50155 0.439457 -0.833835
HEad  -35.1147 -14.1122 4.23332
LeftShoulder1  2.18862 -8.354 -11.295
LeftArm  -14.2462 -59.2758 -49.5647
LeftForeArm  15.182 -14.8885 -2.20587
LeftHand  -0.137366 0.44733 3.20522
RightShoulder  1.1078 4.23888 6.65022
RightArm  -8.02538 56.6822 38.0815
RightForeArm  -2.03735 -4.89535 1.56663
RightHand  -0.475623 4.74396 -5.74111
LeftUpLeg  -51.3493 8.27865 0.877405
LeftLeg  53.3045 -6.31362 -8.53344
LeftFoot  -4.77925 0.305539 -4.8464
LeftToes  -5.63919e-011 3.32596e-011 1.92487e-011
134
root  -58.7153 36.0518 2.88729 -146.81 -88.9458 155.967
RightUpLeg  -50.2971 -15.3105 6.95776
RightLeg  39.0477 3.14657 2.45341
RightFoot  1.8011 0.793656 -6.77052
RightToes  -8.73116e-010 0 -3.6325e-017
Spine  63.1403 -5.61842 11.8714
Spine1  6.77524 1.60479 -2.09689
HEad  -36.4503 -14.3173 5.46528
LeftShoulder1  2.15176 -9.84566 -8.66137
LeftArm  -17.3854 -62.1788 -47.3667
LeftForeArm  14.0172 -14.1771 -1.26603
LeftHand  -0.100974 0.72178 2.43525
RightShoulder  0.992658 4.83362 3.945
RightArm  -15.6803 57.8554 31.2019
RightForeArm  -6.70158 -1.86106 0.131809
RightHand  -0.503672 5.04919 -5.89915
LeftUpLeg  -51.7074 7.85818 1.08288
LeftLeg  43.7673 -10.3619 -10.075
LeftFoot  -4.96059 0.512454 -8.33181
LeftToes  -5.63919e-011 3.32596e-011 1.92487e-011
135
root  -59.2684 35.9588 2.7433 -174.086 -87.6208 -174.98
RightUpLeg  -52.1986 -14.3502 8.05007
RightLeg  40.5832 3.42766 2.85406
RightFoot  0.706665 0.76858 -7.21662
RightToes  -8.73116e-010 0 -3.6325e-017
Spine  65.98 -5.20832 11.3961
Spine1  5.64093 2.69538 -3.11351
HEad  -37.4697 -14.4726 5.61045
LeftShoulder1  2.08548 -10.7362 -6.99898
LeftArm  -21.3651 -65.1469 -44.0751
LeftForeArm  12.7198 -14.3001 -0.521747
LeftHand  -0.0746616 1.43964 2.01444
RightShoulder  0.992257 5.85949 2.46196
RightArm  -24.4271 59.9242 20.0093
RightForeArm  -10.5083 -0.338998 -0.460214
RightHand  -0.613933 6.65594 -6.24901
LeftUpLeg  -51.8986 7.72866 1.02084
LeftLeg  38.5187 -12.8968 -10.4764
LeftFoot  -2.16955 0.428896 -6.07839
LeftToes  -5.63919e-011 3.32596e-011 1.92487e-011
136
root  -59.7439 35.8364 2.66119 -177.575 -86.8285 -169.539
RightUpLeg  -54.4262 -13.7952 9.16383
RightLeg  42.1141 3.46401 3.0546
RightFoot  -0.148804 0.718877 -7.33239
RightToes  -8.73116e-010 0 -3.6325e-017
Spine  68.109 -5.50735 10.9383
Spine1  5.16606 3.31739 -4.51624
HEad  -37.6548 -14.0686 4.614
LeftShoulder1  1.80611 -10.7612 -4.79599
LeftArm  -27.0018 -67.5074 -39.6257
LeftForeArm  10.6139 -14.904 0.00381025
LeftHand  -0.0612013 1.96409 1.70842
RightShoulder  0.82028 6.40221 -0.195642
RightArm  -34.06 61.9664 10.1287
RightForeArm  -11.2413 0.0982216 -1.6167
RightHand  -0.600818 6.39548 -6.24099
LeftUpLeg  -54.451 6.88436 1.13039
LeftLeg  40.5783 -10.6082 -9.2228
LeftFoot  0.785192 -0.447249 4.4301
LeftToes  -5.63919e-011 3.32596e-011 1.92487e-011
